<?xml version="1.0" standalone="no"?>
<!DOCTYPE svg PUBLIC "-//W3C//DTD SVG 20010904//EN"
 "http://www.w3.org/TR/2001/REC-SVG-20010904/DTD/svg10.dtd">
<svg version="1.0" xmlns="http://www.w3.org/2000/svg"
 width="531.000000pt" height="709.000000pt" viewBox="0 0 531.000000 709.000000"
 preserveAspectRatio="xMidYMid meet">

<g transform="translate(0.000000,709.000000) scale(0.100000,-0.100000)"
fill="#000000" stroke="none">
<path d="M2563 6566 c-46 -7 -83 -8 -83 -3 0 4 -10 5 -22 1 -13 -4 -30 -7 -38
-7 -28 2 -214 -56 -287 -88 -24 -11 -46 -19 -51 -19 -4 0 -22 -13 -40 -30 -18
-16 -43 -30 -55 -30 -12 0 -31 -7 -41 -15 -11 -8 -27 -15 -37 -15 -9 0 -42
-25 -73 -55 -30 -30 -74 -62 -96 -71 -22 -9 -40 -20 -40 -24 0 -4 -18 -19 -40
-34 -25 -17 -40 -34 -40 -47 0 -13 -8 -23 -20 -26 -15 -4 -18 -9 -10 -18 8
-10 6 -13 -7 -11 -11 0 -19 -7 -21 -20 -2 -16 -13 -24 -38 -29 -25 -4 -34 -10
-30 -21 3 -9 -6 -20 -26 -30 -30 -15 -85 -64 -73 -64 3 0 -7 -17 -22 -37 -15
-20 -22 -34 -15 -29 6 4 12 5 12 2 0 -11 -40 -46 -52 -46 -6 0 -8 -3 -5 -7 4
-3 0 -15 -10 -25 -9 -10 -13 -18 -8 -18 4 0 -4 -15 -18 -34 -15 -18 -24 -36
-21 -38 2 -3 -2 -11 -10 -17 -8 -7 -12 -19 -9 -27 3 -8 0 -14 -7 -14 -7 0 -10
-7 -6 -16 3 -8 -1 -22 -9 -30 -11 -11 -12 -20 -5 -34 7 -13 4 -25 -12 -45 -17
-22 -19 -29 -7 -36 10 -6 10 -9 2 -9 -7 0 -13 -7 -13 -16 0 -11 5 -14 17 -10
16 6 16 5 0 -12 -10 -11 -19 -32 -21 -48 -3 -16 -8 -38 -12 -48 -5 -13 -4 -17
4 -12 8 5 10 2 6 -8 -3 -9 -1 -16 4 -16 15 0 6 -62 -10 -72 -10 -6 -10 -8 -1
-8 8 0 11 -14 8 -42 -10 -104 -1 -317 14 -348 5 -8 9 -31 9 -50 1 -19 6 -66
11 -105 4 -38 6 -74 4 -78 -3 -4 -14 -5 -26 -2 -20 5 -20 5 -5 -8 13 -10 18
-36 22 -102 3 -48 8 -90 10 -92 6 -7 16 125 21 292 4 145 8 187 22 230 4 11 8
25 9 32 1 7 9 27 18 44 19 38 20 42 5 33 -22 -13 0 45 36 95 19 26 31 52 27
56 -4 5 -2 5 5 2 17 -10 52 39 46 63 -3 12 2 29 12 40 12 14 14 20 5 20 -10 0
-9 4 1 17 12 15 12 16 -6 10 -17 -6 -17 -4 4 13 13 11 21 26 18 34 -3 8 1 20
9 27 21 17 8 25 -14 8 -10 -8 -8 -4 5 8 13 12 23 30 23 40 0 10 6 30 14 45 12
23 12 26 0 21 -25 -9 -15 4 19 27 23 16 26 20 10 15 -23 -6 -32 8 -13 20 15 9
12 27 -2 19 -7 -4 0 5 15 19 15 15 35 27 43 27 9 0 18 9 21 20 3 11 9 20 13
20 14 0 70 61 65 70 -7 11 16 50 29 50 5 0 1 -9 -9 -20 -29 -32 2 -24 34 9 16
16 32 27 36 23 3 -3 3 2 -1 12 -6 16 -3 18 19 14 15 -3 27 -2 27 3 0 4 9 10
19 14 11 3 18 12 15 18 -5 14 29 16 59 3 9 -5 24 -6 32 -2 8 3 15 1 15 -4 0
-6 5 -10 10 -10 6 0 10 7 10 15 0 24 20 18 30 -9 13 -34 28 -40 22 -9 -4 20
-2 24 9 18 12 -7 12 -6 0 9 -13 16 -12 17 15 11 16 -4 35 -8 42 -11 6 -2 12 1
12 7 0 7 10 9 24 5 28 -7 58 2 51 15 -3 4 31 7 75 6 64 -2 84 1 91 13 9 13 10
13 5 -1 -3 -12 2 -17 17 -18 44 -1 56 -5 50 -14 -4 -6 0 -8 8 -5 41 15 59 18
59 10 0 -5 6 -10 13 -9 6 0 21 -1 31 -1 19 -2 19 -2 0 -24 -15 -19 -16 -20 -1
-9 12 10 17 10 17 2 0 -7 4 -10 9 -6 5 3 12 2 15 -3 5 -8 88 -8 102 0 20 12
213 14 289 3 28 -3 60 -7 72 -7 14 0 21 -5 17 -12 -3 -6 0 -4 8 4 14 16 71 23
62 8 -3 -5 3 -12 15 -15 11 -3 18 -10 14 -16 -4 -6 7 -7 33 -2 52 11 88 9 92
-4 2 -6 15 -11 28 -11 14 0 24 -6 24 -14 0 -8 13 -17 30 -21 16 -4 28 -12 27
-18 -1 -7 6 -11 16 -11 10 1 16 -3 14 -10 -5 -13 39 -53 68 -62 11 -4 40 -15
64 -26 37 -16 42 -23 38 -43 -3 -18 1 -26 14 -30 11 -4 20 -11 20 -16 1 -5 3
-13 4 -19 1 -5 3 -16 4 -23 0 -7 15 -28 32 -46 18 -20 24 -31 13 -27 -14 5
-15 4 -4 -9 8 -10 9 -15 1 -15 -6 0 -11 -7 -11 -16 0 -9 5 -12 12 -8 7 5 8 3
4 -5 -5 -7 -15 -10 -23 -6 -13 4 -14 3 -3 -10 7 -8 10 -21 7 -30 -4 -8 0 -21
9 -29 8 -9 10 -17 4 -21 -5 -3 9 -22 30 -42 22 -19 40 -40 40 -45 0 -5 9 -21
20 -35 11 -14 20 -35 20 -45 0 -14 5 -18 16 -14 8 3 13 2 10 -3 -3 -4 6 -31
19 -60 14 -28 25 -65 25 -82 0 -20 4 -28 12 -23 6 4 8 3 5 -3 -4 -6 -2 -25 4
-44 8 -29 15 -84 23 -199 1 -14 -1 -37 -5 -51 -4 -16 -2 -32 4 -38 5 -5 11
-38 13 -73 3 -83 14 -171 21 -165 2 3 6 20 8 39 18 170 16 164 53 173 17 3 38
16 48 27 21 23 22 23 -53 2 -14 -4 -23 -2 -23 5 0 6 3 11 8 11 13 0 32 54 27
78 -2 12 0 20 5 17 5 -3 11 -1 15 5 3 5 1 10 -6 10 -8 0 -8 4 -1 13 6 7 14 37
17 67 4 30 16 81 26 113 10 32 16 64 12 72 -3 8 0 15 7 15 6 0 8 5 3 13 -10
17 -12 88 -2 81 5 -3 9 4 9 15 0 12 6 21 13 21 8 0 7 4 -3 10 -12 8 -12 10 -1
10 11 0 11 3 0 16 -8 10 -9 18 -2 22 13 9 13 43 0 60 -6 8 -6 12 2 12 6 0 8
11 4 30 -3 20 -1 30 6 30 7 0 9 5 5 12 -4 7 -9 24 -10 38 -2 14 -5 52 -8 85
-8 93 -13 117 -24 124 -6 3 -10 17 -10 31 0 43 -6 65 -22 77 -11 9 -11 12 -2
13 18 0 -9 40 -28 40 -13 0 -13 1 0 10 10 6 11 10 3 10 -7 0 -13 5 -13 12 0 6
-8 20 -17 30 -15 17 -15 20 -3 28 14 9 7 14 -15 11 -5 -1 -1 6 9 14 20 15 12
20 -23 16 -7 -2 -10 2 -6 8 3 6 0 11 -7 11 -7 1 -2 7 12 15 l25 13 -28 8 c-20
5 -25 9 -16 15 10 6 6 11 -15 18 -15 6 -34 18 -42 26 -8 8 -22 11 -31 8 -9 -4
-14 -2 -10 3 3 6 -3 17 -14 24 -10 8 -19 22 -19 31 0 9 -10 19 -22 23 -18 5
-20 8 -9 15 11 7 9 11 -8 20 -12 7 -25 10 -30 7 -5 -3 -11 4 -14 15 -3 11 -15
23 -26 26 -12 3 -21 10 -21 15 0 5 -5 6 -12 2 -7 -4 -8 -3 -4 4 4 7 -4 17 -21
24 -26 12 -42 27 -45 45 -4 16 -110 83 -132 83 -8 0 -38 23 -66 50 -36 35 -66
54 -96 61 -24 6 -41 16 -38 21 4 6 -2 8 -15 3 -11 -3 -21 -2 -21 2 0 9 -93 56
-115 59 -43 5 -85 18 -85 26 0 5 -9 7 -19 3 -10 -3 -50 -1 -87 5 -104 17 -210
19 -301 6z m597 -746 c-8 -5 -19 -10 -25 -10 -5 0 -3 5 5 10 8 5 20 10 25 10
6 0 3 -5 -5 -10z m514 -566 c3 -8 2 -12 -4 -9 -6 3 -10 10 -10 16 0 14 7 11
14 -7z m-2364 -154 c-6 -11 -13 -20 -16 -20 -2 0 0 9 6 20 6 11 13 20 16 20 2
0 0 -9 -6 -20z m2590 -356 c0 -2 -7 -4 -15 -4 -8 0 -15 4 -15 10 0 5 7 7 15 4
8 -4 15 -8 15 -10z m50 -78 c0 -3 -4 -8 -10 -11 -5 -3 -10 -1 -10 4 0 6 5 11
10 11 6 0 10 -2 10 -4z"/>
<path d="M1915 5100 c-4 -6 -15 -10 -26 -10 -10 0 -19 -4 -19 -8 0 -4 -14 -13
-31 -19 -25 -10 -35 -9 -53 2 -19 13 -25 13 -44 -1 -12 -8 -30 -17 -41 -19
-20 -4 -77 -52 -70 -60 7 -6 61 31 60 41 -1 5 7 9 17 9 9 1 27 6 38 13 28 15
40 3 14 -15 -11 -8 -18 -18 -15 -23 3 -4 -9 -13 -27 -19 -17 -6 -29 -14 -25
-17 3 -3 15 0 27 6 12 6 28 9 35 6 17 -6 75 13 75 25 0 4 -8 6 -17 2 -13 -4
-15 -3 -7 6 8 9 28 8 83 -4 90 -19 94 -19 53 2 -39 19 -37 28 3 13 33 -12 43
-6 29 18 -12 19 -68 28 -88 15 -6 -4 -3 0 7 10 24 21 60 22 77 2 7 -9 19 -14
26 -11 7 3 15 -2 18 -10 3 -8 11 -14 17 -14 19 0 -10 29 -45 44 -51 23 -65 26
-71 16z m-135 -74 c0 -3 -4 -8 -10 -11 -5 -3 -10 -1 -10 4 0 6 5 11 10 11 6 0
10 -2 10 -4z"/>
<path d="M3231 5076 c25 -25 92 -60 116 -61 6 0 21 -13 33 -28 12 -15 28 -27
37 -27 10 0 2 12 -21 33 -20 18 -36 42 -36 53 0 15 -2 16 -9 4 -6 -8 -7 -18
-5 -22 9 -15 -3 -8 -17 9 -12 15 -12 16 1 8 12 -7 13 -6 3 7 -7 8 -10 18 -6
21 3 4 1 7 -5 7 -6 0 -12 -7 -14 -16 -2 -13 -11 -11 -53 11 l-50 27 26 -26z"/>
<path d="M1800 5075 c0 -16 16 -20 24 -6 3 5 -1 11 -9 15 -9 3 -15 0 -15 -9z"/>
<path d="M2903 5070 c-28 -12 -30 -24 -4 -17 13 3 18 0 15 -7 -3 -9 14 -12 60
-12 67 1 91 -8 66 -25 -11 -8 8 -9 65 -6 44 2 69 2 55 0 -14 -3 -29 -9 -35
-14 -6 -7 18 -10 70 -8 44 0 85 0 90 -2 6 -2 10 1 10 6 0 6 -3 9 -7 8 -4 -2
-16 10 -28 24 -22 28 -69 53 -99 53 -11 -1 -8 -5 9 -15 25 -14 25 -14 -10 -8
-19 3 -42 10 -52 14 -25 13 -180 20 -205 9z"/>
<path d="M1640 5038 c-18 -17 -26 -28 -16 -25 10 4 22 7 27 7 5 0 8 4 7 9 -2
5 6 17 17 25 11 8 15 16 9 16 -6 0 -26 -14 -44 -32z"/>
<path d="M3425 5000 c-3 -5 -1 -10 4 -10 6 0 11 5 11 10 0 6 -2 10 -4 10 -3 0
-8 -4 -11 -10z"/>
<path d="M3335 4991 c3 -5 0 -11 -7 -13 -7 -3 -8 -7 -3 -10 6 -3 15 0 22 7 10
10 9 14 -3 19 -8 3 -13 2 -9 -3z"/>
<path d="M1650 4950 c-9 -6 -10 -10 -3 -10 6 0 15 5 18 10 8 12 4 12 -15 0z"/>
<path d="M3449 4941 c14 -25 20 -27 17 -4 -2 9 -8 19 -15 21 -10 3 -10 0 -2
-17z"/>
<path d="M3363 4930 c6 -11 15 -20 19 -20 12 0 -3 28 -18 34 -11 4 -12 2 -1
-14z"/>
<path d="M1667 4929 c-9 -5 -21 -8 -26 -4 -5 3 -12 1 -16 -5 -10 -16 45 -12
61 5 18 17 7 19 -19 4z"/>
<path d="M3401 4926 c2 -2 15 -9 29 -15 24 -11 24 -11 6 3 -16 13 -49 24 -35
12z"/>
<path d="M1540 4890 c0 -5 4 -10 9 -10 6 0 13 5 16 10 3 6 -1 10 -9 10 -9 0
-16 -4 -16 -10z"/>
<path d="M3460 4890 c0 -4 11 -10 25 -12 13 -3 22 -2 20 2 -7 11 -45 20 -45
10z"/>
<path d="M1848 4773 c6 -2 18 -2 25 0 6 3 1 5 -13 5 -14 0 -19 -2 -12 -5z"/>
<path d="M1705 4738 c-55 -28 -74 -46 -96 -92 -25 -53 -24 -62 9 -61 15 1 35
-3 45 -8 14 -6 22 -4 31 9 10 13 20 15 42 10 55 -13 79 -16 64 -9 -36 19 -60
39 -60 50 0 7 4 13 10 13 5 0 18 10 30 22 17 18 20 19 20 5 0 -9 5 -17 10 -17
6 0 10 -8 10 -17 1 -40 51 -75 106 -75 19 0 36 -4 39 -9 3 -4 11 -6 18 -4 7 2
30 7 51 10 21 3 49 8 62 11 17 4 26 1 30 -10 8 -20 24 -21 24 -1 0 24 -44 86
-91 130 -24 22 -35 29 -24 16 11 -14 14 -21 8 -17 -15 8 -35 13 -129 28 -59 9
-78 9 -118 -5 -26 -9 -54 -13 -63 -10 -12 5 -14 3 -8 -8 8 -12 6 -12 -8 0 -24
19 -22 25 16 44 17 8 28 16 22 16 -5 0 -28 -9 -50 -21z m185 -78 c0 -11 -4
-20 -10 -20 -5 0 -10 9 -10 20 0 11 5 20 10 20 6 0 10 -9 10 -20z m86 -17
c-11 -11 -19 6 -11 24 8 17 8 17 12 0 3 -10 2 -21 -1 -24z m70 19 c18 -12 37
-54 27 -62 -10 -9 -93 -30 -93 -23 0 3 9 16 20 30 11 14 20 34 20 44 0 20 8
23 26 11z"/>
<path d="M3224 4745 c50 -14 75 -30 63 -41 -3 -4 -42 -1 -86 6 -83 13 -141 6
-218 -27 -49 -20 -52 -16 -13 19 l35 31 -35 -25 c-51 -37 -120 -125 -120 -153
0 -29 8 -32 25 -8 11 14 17 15 58 4 25 -8 69 -14 97 -14 41 -1 50 -4 45 -16
-4 -12 -2 -12 9 2 7 9 17 17 22 17 34 2 89 92 78 127 -4 11 4 6 20 -12 22 -24
25 -26 16 -7 -18 37 -5 36 18 -1 14 -24 17 -39 10 -50 -7 -14 -4 -17 17 -17
14 0 28 -6 31 -13 6 -16 63 -18 65 -3 1 6 1 17 -1 25 -1 10 7 12 29 9 34 -5
39 3 16 26 -8 8 -15 21 -15 30 0 36 -131 108 -194 105 -11 0 1 -7 28 -14z
m-84 -101 c0 -8 -7 -14 -15 -14 -17 0 -18 2 -9 24 7 18 24 12 24 -10z m-124
-75 c9 -10 14 -19 10 -19 -17 0 -102 23 -109 30 -12 11 13 57 36 67 19 9 23 6
33 -24 7 -19 20 -43 30 -54z m34 75 c0 -17 -22 -14 -28 4 -2 7 3 12 12 12 9 0
16 -7 16 -16z"/>
<path d="M3020 4740 c-12 -8 -11 -10 7 -10 12 0 25 5 28 10 8 13 -15 13 -35 0z"/>
<path d="M3208 4563 c7 -3 16 -2 19 1 4 3 -2 6 -13 5 -11 0 -14 -3 -6 -6z"/>
<path d="M4026 4511 c-15 -17 -15 -19 0 -32 14 -11 18 -11 30 6 30 40 4 64
-30 26z"/>
<path d="M1110 4503 c0 -25 15 -38 25 -22 4 6 0 18 -9 27 -15 15 -16 15 -16
-5z"/>
<path d="M3880 4278 c0 -36 11 -66 24 -71 9 -4 11 2 8 19 -2 13 1 31 8 39 15
18 13 20 -17 29 -19 6 -23 4 -23 -16z"/>
<path d="M3906 4145 c4 -8 7 -15 9 -15 2 0 5 7 9 15 3 9 0 15 -9 15 -9 0 -12
-6 -9 -15z"/>
<path d="M3904 4096 c-8 -34 -1 -79 14 -84 8 -3 12 12 12 52 0 57 -15 75 -26
32z"/>
<path d="M2858 3963 c13 -25 22 -114 11 -107 -5 3 -6 -2 -3 -10 3 -9 12 -16
20 -16 17 0 17 5 4 30 -6 11 -6 28 -2 41 6 16 4 32 -7 51 -17 30 -38 40 -23
11z"/>
<path d="M2095 3910 c-3 -5 -1 -10 4 -10 6 0 11 5 11 10 0 6 -2 10 -4 10 -3 0
-8 -4 -11 -10z"/>
<path d="M2228 3884 c-29 -15 -32 -22 -20 -40 7 -11 178 -11 189 -1 7 7 -34
29 -82 44 -50 16 -54 16 -87 -3z"/>
<path d="M2612 3889 c-25 -10 -79 -49 -68 -49 3 0 15 5 25 12 15 9 28 9 58 -1
48 -15 127 -9 131 11 6 31 -92 49 -146 27z"/>
<path d="M2838 3834 c-4 -3 -14 -7 -25 -9 -10 -1 -17 -7 -16 -12 1 -5 -14 -15
-33 -22 -19 -7 -34 -16 -34 -21 0 -10 66 22 100 49 14 12 22 21 19 21 -3 0 -8
-3 -11 -6z"/>
<path d="M2153 3815 c4 -9 7 -20 7 -23 0 -4 10 -7 23 -8 12 0 31 -4 42 -9 16
-6 15 -3 -6 17 -14 14 -36 29 -49 33 -19 6 -22 4 -17 -10z"/>
<path d="M2460 3550 c-11 -7 -2 -10 29 -10 48 0 51 4 11 13 -14 3 -32 2 -40
-3z"/>
<path d="M2333 3489 c-6 -6 -60 -35 -119 -64 -60 -30 -104 -54 -98 -55 7 0 10
-12 8 -29 -6 -52 24 -72 118 -82 46 -4 94 -5 108 -2 37 9 79 43 73 59 -3 9 2
14 16 14 22 0 28 -14 11 -25 -5 -3 -10 -13 -10 -20 0 -12 6 -12 27 -4 15 6 29
6 32 1 10 -15 49 -24 56 -12 4 7 12 7 26 0 19 -11 24 -4 20 28 -3 17 16 15 23
-3 4 -11 13 -14 31 -9 19 5 25 2 25 -11 0 -9 4 -14 9 -10 5 3 12 1 16 -5 9
-15 121 -12 161 5 23 10 35 21 34 32 -1 10 -1 20 0 23 7 18 5 50 -3 50 -6 0
-18 6 -26 14 -9 8 -52 28 -96 45 -43 18 -85 37 -92 43 -9 7 -18 7 -29 -3 -14
-11 -18 -11 -28 3 -12 16 -75 16 -85 -1 -10 -14 -87 -3 -147 20 -20 7 -29 7
-34 -2 -6 -8 -9 -8 -11 0 -3 9 -7 9 -16 0z m44 -44 c8 -22 -6 -33 -17 -15 -13
20 -12 30 0 30 6 0 13 -7 17 -15z m288 5 c-3 -5 1 -10 9 -10 9 0 16 -5 16 -11
0 -5 4 -8 9 -5 7 5 40 -15 75 -45 5 -5 -4 -7 -20 -5 -16 2 -36 4 -44 5 -13 1
-13 2 0 11 13 9 13 10 0 10 -22 1 -63 38 -55 50 3 5 8 10 11 10 3 0 2 -4 -1
-10z m-316 -33 c15 -21 10 -29 -21 -32 -13 -1 -36 -7 -53 -14 -58 -23 -59 -23
-46 -7 7 8 26 18 42 21 21 5 29 11 25 21 -3 8 -1 14 5 14 6 0 7 5 4 11 -12 18
29 5 44 -14z m160 -18 c-8 -5 -21 -9 -29 -9 -12 1 -11 4 4 15 10 8 23 12 29 8
5 -3 3 -9 -4 -14z m131 17 c0 -2 -7 -6 -15 -10 -8 -3 -15 -1 -15 4 0 6 7 10
15 10 8 0 15 -2 15 -4z m-70 -15 c0 -6 -9 -9 -20 -8 -11 1 -20 5 -20 9 0 4 9
8 20 8 11 0 20 -4 20 -9z m-340 -75 c0 -3 -4 -8 -10 -11 -5 -3 -10 -1 -10 4 0
6 5 11 10 11 6 0 10 -2 10 -4z m275 -16 c3 -5 1 -10 -4 -10 -6 0 -11 5 -11 10
0 6 2 10 4 10 3 0 8 -4 11 -10z"/>
<path d="M2370 3222 c0 -5 11 -14 25 -20 22 -10 25 -9 25 8 0 15 -7 20 -25 20
-14 0 -25 -4 -25 -8z"/>
<path d="M2605 3210 c3 -5 26 -10 50 -10 24 0 47 5 50 10 4 6 -15 10 -50 10
-35 0 -54 -4 -50 -10z"/>
<path d="M2435 3201 c-2 -5 4 -11 15 -14 11 -3 20 -2 20 3 0 12 -28 21 -35 11z"/>
<path d="M2486 3185 c4 -8 12 -15 20 -15 8 0 14 -6 14 -14 0 -19 50 -6 64 17
15 24 1 31 -33 18 -22 -10 -35 -10 -50 -2 -17 10 -20 9 -15 -4z"/>
<path d="M3676 2943 c-4 -16 -10 -116 -15 -223 -7 -153 -13 -207 -29 -251 -25
-71 -49 -117 -78 -151 -12 -15 -46 -71 -76 -125 -51 -93 -111 -164 -214 -251
-21 -19 -82 -73 -134 -121 -52 -48 -103 -90 -113 -94 -9 -4 -20 -14 -24 -23
-8 -22 -51 -64 -65 -64 -9 0 -9 -3 -1 -11 9 -9 8 -18 -4 -35 -14 -22 -14 -23
6 -19 12 2 26 7 31 10 23 14 4 -7 -108 -123 -116 -119 -120 -122 -170 -128
-70 -8 -287 19 -277 36 3 4 -3 7 -12 6 -10 0 -18 6 -18 14 -1 8 -6 14 -13 13
-6 -2 -32 17 -57 42 -24 25 -47 45 -50 45 -3 0 -20 14 -38 30 -18 17 -62 55
-98 84 -108 85 -160 137 -200 199 -20 31 -64 88 -97 125 -34 37 -73 81 -87 97
-33 37 -95 162 -95 190 0 12 -5 26 -12 33 -7 7 -9 12 -6 12 4 0 -2 30 -12 68
-12 45 -21 120 -25 227 -6 149 -19 230 -48 298 -7 15 -15 27 -20 27 -28 0
-169 -110 -264 -207 -103 -104 -119 -116 -114 -89 1 5 -8 2 -21 -6 -13 -8 -34
-21 -48 -29 -98 -55 -227 -188 -287 -295 -26 -46 -84 -94 -115 -94 -9 0 -29
-6 -45 -14 -61 -30 -121 -56 -130 -56 -6 0 -16 -7 -23 -15 -7 -8 -21 -15 -31
-15 -11 0 -27 -4 -37 -9 -9 -5 -35 -16 -57 -24 -22 -8 -64 -25 -93 -37 -30
-12 -61 -19 -69 -15 -9 3 -24 -3 -34 -14 -10 -11 -26 -17 -37 -14 -10 2 -24
-2 -31 -10 -6 -8 -21 -13 -31 -10 -52 14 -50 55 -50 -973 l0 -954 2655 0 2655
0 -2 877 -3 877 -25 12 c-186 90 -257 124 -270 129 -8 3 -33 17 -55 30 -22 14
-51 29 -64 35 -13 6 -35 19 -49 30 -13 11 -33 20 -42 20 -10 0 -23 7 -30 15
-7 9 -34 26 -59 39 -227 115 -234 117 -242 104 -7 -10 -9 -10 -9 2 0 15 -4 19
-118 113 -38 32 -104 98 -147 147 -45 52 -86 90 -98 92 -14 2 -23 11 -25 26
-2 12 -7 22 -12 22 -4 0 -40 50 -79 110 -40 61 -96 135 -126 165 -50 49 -150
125 -166 125 -4 0 -10 -12 -13 -27z m-2056 -1443 c0 -5 -2 -10 -4 -10 -3 0 -8
5 -11 10 -3 6 -1 10 4 10 6 0 11 -4 11 -10z m2890 -30 c0 -5 -2 -10 -4 -10 -3
0 -8 5 -11 10 -3 6 -1 10 4 10 6 0 11 -4 11 -10z m450 -700 c0 -5 -2 -10 -4
-10 -3 0 -8 5 -11 10 -3 6 -1 10 4 10 6 0 11 -4 11 -10z m-3425 -70 c3 -5 1
-10 -4 -10 -6 0 -11 5 -11 10 0 6 2 10 4 10 3 0 8 -4 11 -10z m320 -250 c3 -5
1 -10 -4 -10 -6 0 -11 5 -11 10 0 6 2 10 4 10 3 0 8 -4 11 -10z m1437 -282
c-7 -7 -12 -8 -12 -2 0 14 12 26 19 19 2 -3 -1 -11 -7 -17z m-722 -78 c0 -5
-5 -10 -11 -10 -5 0 -7 5 -4 10 3 6 8 10 11 10 2 0 4 -4 4 -10z m73 -53 c-4
-22 -8 -25 -19 -16 -16 13 -19 33 -4 24 6 -3 13 1 16 10 9 24 13 14 7 -18z"/>
<path d="M3452 2856 c-23 -25 -42 -47 -42 -50 0 -3 -11 -17 -25 -32 -14 -15
-25 -35 -25 -45 0 -11 -4 -19 -9 -19 -12 0 -8 40 6 48 6 4 16 20 22 35 10 26
9 27 -9 17 -11 -6 -18 -15 -15 -20 3 -6 -7 -22 -22 -37 -15 -14 -23 -23 -16
-19 6 3 14 2 17 -3 3 -5 -2 -12 -11 -16 -10 -3 -19 -1 -21 4 -2 6 -8 9 -13 5
-16 -9 -10 -20 12 -21 29 -2 37 -12 19 -23 -8 -5 -19 -5 -25 0 -7 6 -21 0 -38
-15 -34 -32 -63 -34 -46 -3 6 11 12 41 14 65 2 42 2 43 -16 27 -22 -20 -25
-36 -5 -28 11 4 13 0 9 -15 -7 -27 -23 -27 -30 -1 -3 11 -10 20 -15 20 -5 0
-6 5 -3 10 3 6 2 10 -4 10 -5 0 -13 -4 -16 -10 -3 -5 -1 -10 4 -10 6 0 11 -4
11 -10 0 -5 -6 -10 -14 -10 -8 0 -22 -8 -32 -17 -17 -17 -17 -17 -11 5 6 27 0
52 -14 52 -5 0 -9 -6 -9 -13 0 -19 -51 -42 -60 -27 -9 15 -98 -19 -103 -41 -3
-12 -12 -15 -31 -12 -14 3 -32 0 -40 -6 -10 -8 -21 -8 -40 -1 -15 5 -25 6 -22
1 9 -14 -20 -21 -33 -8 -7 7 -11 7 -11 1 0 -6 -15 -11 -32 -10 -18 1 -39 -5
-46 -11 -7 -7 -24 -13 -37 -13 -13 0 -31 -3 -39 -6 -11 -4 -15 -2 -11 8 8 19
-26 20 -40 1 -14 -19 -45 -23 -70 -10 -11 6 -26 10 -34 8 -9 -2 -12 3 -7 15 5
14 4 15 -9 4 -9 -7 -18 -10 -22 -7 -3 4 -12 2 -19 -4 -16 -13 -84 -3 -84 11 0
6 -10 8 -22 6 -24 -3 -68 12 -68 24 0 4 -9 10 -20 13 -11 3 -18 1 -14 -4 11
-19 -10 -8 -33 17 -17 18 -34 26 -58 26 -22 0 -41 8 -56 24 -23 25 -46 33 -33
12 5 -7 -5 -3 -20 10 -35 27 -41 27 -43 2 -1 -11 3 -20 9 -20 6 0 7 -8 3 -17
-5 -15 -4 -16 6 -5 7 6 20 12 29 12 12 0 13 -2 1 -9 -16 -10 -6 -31 14 -31 28
0 76 -35 71 -53 -2 -9 0 -14 5 -11 5 3 8 -11 7 -30 -2 -23 -7 -35 -15 -32 -6
3 -17 -2 -23 -10 -7 -8 -9 -14 -5 -14 4 0 2 -7 -6 -16 -11 -14 -14 -14 -24 -1
-5 8 -21 18 -35 22 l-25 8 20 -23 c11 -12 37 -31 58 -41 20 -11 37 -24 37 -30
0 -10 89 -55 103 -51 4 1 7 -3 7 -8 0 -6 9 -10 20 -10 11 0 20 -6 20 -14 0 -8
17 -20 38 -27 20 -6 42 -15 47 -20 6 -4 20 -8 30 -9 20 -1 78 -6 103 -8 8 -1
10 -7 6 -14 -5 -10 -4 -10 6 -1 7 7 25 9 40 6 15 -3 37 0 48 6 13 7 23 7 27 2
7 -13 103 -4 154 14 23 8 44 14 46 14 44 0 103 22 205 77 14 8 35 14 48 14 13
0 21 4 18 8 -7 11 51 45 64 37 6 -3 10 5 10 19 0 14 8 35 17 46 18 20 39 28
28 10 -3 -6 1 -7 9 -4 9 3 16 10 16 16 0 5 3 7 8 4 11 -6 45 21 39 31 -3 5 7
17 24 27 16 9 29 22 29 28 0 6 6 6 15 -2 13 -11 27 -1 90 64 41 42 72 76 67
76 -4 0 -2 4 3 8 6 4 19 24 30 44 10 20 23 35 27 32 4 -3 8 2 8 10 0 22 -2 21
-48 -28z m-282 -166 c0 -5 -7 -7 -15 -4 -8 4 -15 8 -15 10 0 2 7 4 15 4 8 0
15 -4 15 -10z m-110 -4 c0 -3 -4 -8 -10 -11 -5 -3 -10 -1 -10 4 0 6 5 11 10
11 6 0 10 -2 10 -4z m16 -21 c-11 -8 -25 -15 -30 -15 -6 1 0 7 14 15 32 19 40
18 16 0z m74 -35 c0 -5 -4 -10 -10 -10 -5 0 -10 5 -10 10 0 6 5 10 10 10 6 0
10 -4 10 -10z m-1009 -42 c10 7 19 8 19 3 0 -6 -4 -13 -10 -16 -5 -3 -10 -12
-10 -18 0 -7 4 -6 10 3 8 13 13 13 30 2 11 -7 25 -10 30 -7 15 9 47 -3 54 -20
3 -9 0 -12 -10 -8 -7 3 -14 8 -14 12 0 3 -21 6 -48 6 -26 0 -53 4 -60 9 -8 6
-19 2 -32 -9 -18 -16 -20 -16 -20 -2 0 10 6 17 13 18 10 0 10 2 0 6 -7 2 -13
14 -13 25 0 21 0 21 21 2 17 -15 23 -16 40 -6z m1036 0 c-3 -8 -6 -5 -6 6 -1
11 2 17 5 13 3 -3 4 -12 1 -19z m-262 -28 c-3 -5 -12 -10 -18 -10 -7 0 -6 4 3
10 19 12 23 12 15 0z m-38 -16 c-3 -3 -12 -4 -19 -1 -8 3 -5 6 6 6 11 1 17 -2
13 -5z m-58 -30 c1 -1 -10 -3 -25 -3 -45 0 -59 -5 -90 -32 -34 -29 -70 -72
-44 -53 9 7 23 8 35 3 18 -7 18 -8 -5 -10 -42 -4 -85 2 -91 13 -4 6 -21 5 -49
-2 -36 -10 -45 -9 -60 5 -10 9 -38 17 -64 18 -25 1 -46 5 -46 10 0 4 5 7 10 7
6 0 10 7 10 16 0 10 6 14 14 11 7 -3 19 0 25 6 8 8 11 8 11 0 0 -6 13 -13 29
-15 18 -3 28 0 24 5 -4 6 3 8 15 5 12 -4 22 -2 22 3 0 5 7 9 15 9 8 0 15 -4
15 -10 0 -5 16 -10 36 -10 28 0 35 3 30 15 -7 20 4 19 19 -2 11 -15 17 -16 36
-5 13 7 35 15 49 17 14 3 26 9 28 15 3 8 33 -1 51 -16z m-485 -12 c3 -5 -1 -9
-9 -9 -8 0 -15 4 -15 9 0 4 4 8 9 8 6 0 12 -4 15 -8z m51 -11 c-3 -6 -11 -8
-17 -5 -6 4 -5 9 3 15 16 10 23 4 14 -10z m373 -12 c-10 -5 -18 -18 -18 -27 0
-15 2 -15 10 -2 8 13 10 12 10 -2 0 -19 -25 -25 -34 -9 -3 5 -15 7 -26 4 -32
-8 -23 5 18 26 38 20 71 29 40 10z m-403 -9 c3 -5 1 -10 -4 -10 -6 0 -11 5
-11 10 0 6 2 10 4 10 3 0 8 -4 11 -10z m445 -24 c0 -3 -4 -8 -10 -11 -5 -3
-10 -1 -10 4 0 6 5 11 10 11 6 0 10 -2 10 -4z m-320 -16 c8 -5 12 -11 10 -14
-3 -2 -14 2 -24 10 -22 15 -10 19 14 4z m-30 -50 c0 -5 -4 -10 -10 -10 -5 0
-10 5 -10 10 0 6 5 10 10 10 6 0 10 -4 10 -10z"/>
<path d="M2640 2470 c-8 -5 -10 -10 -5 -10 6 0 17 5 25 10 8 5 11 10 5 10 -5
0 -17 -5 -25 -10z"/>
<path d="M2555 2460 c-4 -6 3 -10 14 -10 25 0 27 6 6 13 -8 4 -17 2 -20 -3z"/>
<path d="M2610 2450 c0 -5 5 -10 11 -10 5 0 7 5 4 10 -3 6 -8 10 -11 10 -2 0
-4 -4 -4 -10z"/>
<path d="M2110 2862 c0 -5 7 -15 15 -22 8 -7 15 -8 15 -2 0 5 -7 15 -15 22 -8
7 -15 8 -15 2z"/>
<path d="M1699 2841 c14 -25 28 -34 28 -17 0 7 -9 19 -19 25 -17 11 -18 10 -9
-8z"/>
<path d="M1590 2811 c0 -5 5 -13 10 -16 6 -3 10 -2 10 4 0 5 -4 13 -10 16 -5
3 -10 2 -10 -4z"/>
<path d="M3177 2803 c-4 -3 -7 -11 -7 -17 0 -6 5 -5 12 2 6 6 9 14 7 17 -3 3
-9 2 -12 -2z"/>
<path d="M1750 2785 c0 -8 5 -15 12 -15 6 0 20 -7 30 -17 10 -9 21 -13 26 -9
7 8 -45 56 -60 56 -5 0 -8 -7 -8 -15z"/>
<path d="M1897 2679 c7 -7 15 -10 18 -7 3 3 -2 9 -12 12 -14 6 -15 5 -6 -5z"/>
<path d="M2315 2640 c3 -5 10 -10 16 -10 5 0 9 5 9 10 0 6 -7 10 -16 10 -8 0
-12 -4 -9 -10z"/>
<path d="M2591 2634 c0 -11 3 -14 6 -6 3 7 2 16 -1 19 -3 4 -6 -2 -5 -13z"/>
<path d="M2495 2620 c-19 -8 -19 -9 3 -9 12 -1 22 4 22 9 0 6 -1 10 -2 9 -2 0
-12 -4 -23 -9z"/>
<path d="M1947 2573 c3 -7 6 -13 8 -13 2 0 5 6 8 13 3 8 -1 14 -8 14 -7 0 -11
-6 -8 -14z"/>
<path d="M3125 2500 c-3 -5 -1 -10 4 -10 6 0 11 5 11 10 0 6 -2 10 -4 10 -3 0
-8 -4 -11 -10z"/>
</g>
</svg>
